<svg width="512" height="512" viewBox="0 0 60 60" fill="none" xmlns="http://www.w3.org/2000/svg">
<g clip-path="url(#clip0)">
<rect width="60" height="60" rx="12.9474" fill="url(#bg)"/>
<g filter="url(#glow1)">
<circle cx="18.9115" cy="52.4697" r="21.1214" fill="#32E6B9" fill-opacity="0.4"/>
</g>
<g filter="url(#glow2)">
<circle cx="50.0107" cy="65.4275" r="19.3057" fill="#32E6B9"/>
</g>
<path d="M45.8868 4.69195C46.4752 4.16429 46.5107 4.14349 46.9422 4.11759C47.641 4.06669 48.2811 4.40199 49.3705 5.39377C51.9164 7.70724 55.4618 12.4637 57.6659 16.5255L58.5174 18.102L59.7197 18.7001C60.881 19.2869 62.7863 20.4902 63.5818 21.1354C63.9415 21.4329 63.9924 21.439 64.3665 21.2935C66.0548 20.6361 68.4729 21.5074 70.606 23.5537C72.5263 25.3941 74.3658 28.5387 75.0704 31.1632C75.1733 31.5856 75.3101 32.494 75.3598 33.1703C75.5205 35.5448 74.7584 37.4411 73.2919 38.2996C72.9924 38.4725 72.9723 38.5197 72.9807 39.2664C73.0483 42.8228 72.0896 46.3731 70.1639 49.8348C67.9901 53.7217 64.1195 57.7423 58.881 61.5305C56.068 63.5776 49.4124 67.4555 46.4032 68.8169C39.1946 72.0623 33.4158 73.3071 28.3962 72.6921C25.4022 72.3294 22.0133 71.1606 20.008 69.804C19.48 69.439 19.3961 69.4166 18.9928 69.532C16.8462 70.1485 14.0352 68.8813 11.6469 66.2303C10.6943 65.1706 9.15599 62.5682 8.65756 61.1757C7.50479 57.9172 7.73432 54.9769 9.26993 53.2208C9.66668 52.7685 9.67947 52.7493 9.59283 51.989C9.44972 50.744 9.38451 48.9014 9.44987 47.7121L9.50173 46.6008L7.83361 43.651C5.25116 39.0559 3.6112 35.1973 2.97839 32.2493C2.64439 30.6332 2.66509 29.9162 3.07514 29.3856C3.32486 29.0652 4.14386 28.7327 5.13122 28.5504C7.61691 28.114 13.0385 28.5087 19.0698 29.5736L19.6963 29.6821L21.0727 28.4646C23.3582 26.4401 24.8768 25.3049 27.6758 23.5596C30.5933 21.7342 33.8862 20.2323 37.5941 19.0433L38.7835 18.6621L39.4374 16.945C41.7788 10.7642 44.1771 6.2079 45.8868 4.69195ZM26.2743 36.3646C23.6281 37.8924 22.3047 38.656 21.3324 39.5121C17.3953 42.979 15.9239 48.4708 17.6 53.4418C18.0139 54.6693 18.7783 55.9925 20.306 58.6386C21.8337 61.2845 22.5975 62.6082 23.4535 63.5804C26.9204 67.5176 32.4122 68.9891 37.3832 67.3129C38.6108 66.8989 39.9342 66.1355 42.5804 64.6077L57.8035 55.8186C60.4498 54.2908 61.7727 53.5264 62.7449 52.6703C66.6821 49.2033 68.1536 43.7116 66.4774 38.7406C66.0634 37.5131 65.299 36.1898 63.7713 33.5438C62.2436 30.8977 61.48 29.5742 60.6239 28.602C57.1569 24.6649 51.6651 23.1933 46.6941 24.8695C45.4666 25.2835 44.1436 26.0478 41.4974 27.5755L26.2743 36.3646Z" fill="url(#mascot)"/>
<rect x="27.7427" y="47.0014" width="6.01355" height="12.4897" rx="3.00678" transform="rotate(-30 27.7427 47.0014)" fill="white"/>
<rect x="43.9685" y="37.6342" width="6.01355" height="12.4897" rx="3.00678" transform="rotate(-30 43.9685 37.6342)" fill="white"/>
</g>
<defs>
<filter id="glow1" x="-22.3736" y="11.1846" width="82.5703" height="82.5703" filterUnits="userSpaceOnUse" color-interpolation-filters="sRGB">
<feFlood flood-opacity="0" result="BackgroundImageFix"/>
<feBlend mode="normal" in="SourceGraphic" in2="BackgroundImageFix" result="shape"/>
<feGaussianBlur stdDeviation="10.0818" result="blur"/>
<feComposite in="shape" in2="blur" operator="over"/>
</filter>
<filter id="glow2" x="14.2045" y="29.6213" width="71.6125" height="71.6124" filterUnits="userSpaceOnUse" color-interpolation-filters="sRGB">
<feFlood flood-opacity="0" result="BackgroundImageFix"/>
<feBlend mode="normal" in="SourceGraphic" in2="BackgroundImageFix" result="shape"/>
<feGaussianBlur stdDeviation="8.25028" result="blur"/>
<feComposite in="shape" in2="blur" operator="over"/>
</filter>
<linearGradient id="bg" x1="30" y1="0" x2="30" y2="60" gradientUnits="userSpaceOnUse">
<stop stop-color="#6C4DFF"/>
<stop offset="1" stop-color="#583ED3"/>
</linearGradient>
<linearGradient id="mascot" x1="24.993" y1="16.6175" x2="53.0613" y2="65.2333" gradientUnits="userSpaceOnUse">
<stop stop-color="white" stop-opacity="0.8"/>
<stop offset="0.437689" stop-color="white"/>
</linearGradient>
<clipPath id="clip0">
<rect width="60" height="60" rx="12.9474" fill="white"/>
</clipPath>
</defs>
</svg>